# This file uses centimeters as units for non-parametric coordinates.

mtllib Light_Outside.mtl
v -0.500000 0.000096 0.500000
v 0.500000 0.000096 0.500000
v -0.500000 0.366251 0.500000
v 0.500000 0.366251 0.500000
v -0.500000 0.366251 -0.500000
v 0.500000 0.366251 -0.500000
v -0.500000 0.000096 -0.500000
v 0.500000 0.000096 -0.500000
v -0.341793 0.620122 0.341793
v 0.341793 0.620122 0.341793
v 0.341793 0.620122 -0.341793
v -0.341793 0.620122 -0.341793
v -0.153703 2.231554 0.153703
v 0.153703 2.231554 0.153703
v 0.153703 2.231554 -0.153703
v -0.153703 2.231554 -0.153703
v -0.153703 6.222006 0.153703
v 0.153703 6.222006 0.153703
v 0.153703 6.222006 -0.153703
v -0.153703 6.222006 -0.153703
v -0.241164 6.222006 0.241164
v 0.241164 6.222006 0.241164
v 0.241164 6.222006 -0.241164
v -0.241164 6.222006 -0.241164
v -0.241164 6.329766 0.241164
v 0.241164 6.329766 0.241164
v 0.241164 6.329766 -0.241164
v -0.241164 6.329766 -0.241164
v -0.241164 6.453572 0.193217
v 0.241164 6.453572 0.193217
v 0.241164 6.453572 -0.193217
v -0.241164 6.453572 -0.193217
v -0.241164 6.550803 0.077977
v 0.241164 6.550803 0.077977
v 0.241164 6.550803 -0.077977
v -0.241164 6.550803 -0.077977
v -0.241164 6.717941 0.077977
v 0.241164 6.717941 0.077977
v 0.241164 6.581316 -0.300998
v -0.241164 6.581316 -0.300998
v -0.241164 6.844081 0.032501
v 0.241164 6.844081 0.032501
v 0.241164 6.707456 -0.346473
v -0.241164 6.707456 -0.346473
v -0.241164 6.343714 -0.960064
v 0.241164 6.343714 -0.960064
v -0.241164 6.469854 -1.005539
v 0.241164 6.469854 -1.005539
v -0.241164 7.584286 2.481065
v 0.241164 7.584286 2.481065
v 0.241164 7.710426 2.435589
v -0.241164 7.710426 2.435589
v -0.206289 6.926593 0.007887
v 0.206289 6.926593 0.007887
v 0.206289 6.789968 -0.371088
v -0.206289 6.789968 -0.371088
v 0.206289 6.552366 -1.030154
v -0.206289 6.552366 -1.030154
v -0.206289 7.792937 2.410975
v 0.206289 7.792937 2.410975
v -0.099935 6.993384 -0.021324
v 0.099935 6.993384 -0.021324
v 0.099935 6.856759 -0.400298
v -0.099935 6.856759 -0.400298
v 0.099935 6.619157 -1.059365
v -0.099935 6.619157 -1.059365
v -0.099935 7.859728 2.381764
v 0.099935 7.859728 2.381764
v -0.191499 6.742047 0.144842
v 0.191499 6.742047 0.144842
v 0.191499 7.560180 2.414199
v -0.191499 7.560180 2.414199
v -0.191499 6.798704 0.124417
v 0.191499 6.798704 0.124417
v 0.191499 7.616836 2.393774
v -0.191499 7.616836 2.393774
v -0.198804 6.490969 -0.163795
v 0.198804 6.490969 -0.163795
v -0.198804 6.592742 -0.271576
v 0.198804 6.592742 -0.271576
v 0.198804 6.550803 -0.077977
v -0.198804 6.550803 -0.077977
v 0.198804 6.550803 0.077977
v 0.198804 6.717941 0.077977
v -0.198804 6.550803 0.077977
v -0.210424 6.717941 0.077977
vt 0.375000 0.000000
vt 0.625000 0.000000
vt 0.375000 0.250000
vt 0.625000 0.250000
vt 0.375000 0.500000
vt 0.625000 0.500000
vt 0.375000 0.750000
vt 0.625000 0.750000
vt 0.375000 1.000000
vt 0.625000 1.000000
vt 0.875000 0.000000
vt 0.875000 0.250000
vt 0.125000 0.000000
vt 0.125000 0.250000
vt 0.375000 0.250000
vt 0.625000 0.250000
vt 0.625000 0.500000
vt 0.375000 0.500000
vt 0.375000 0.250000
vt 0.625000 0.250000
vt 0.625000 0.500000
vt 0.375000 0.500000
vt 0.375000 0.250000
vt 0.625000 0.250000
vt 0.625000 0.500000
vt 0.375000 0.500000
vt 0.375000 0.250000
vt 0.625000 0.250000
vt 0.625000 0.500000
vt 0.375000 0.500000
vt 0.375000 0.250000
vt 0.625000 0.250000
vt 0.625000 0.500000
vt 0.375000 0.500000
vt 0.375000 0.250000
vt 0.625000 0.250000
vt 0.625000 0.500000
vt 0.375000 0.500000
vt 0.375000 0.250000
vt 0.625000 0.250000
vt 0.625000 0.500000
vt 0.375000 0.500000
vt 0.375000 0.250000
vt 0.625000 0.250000
vt 0.624986 0.539202
vt 0.375017 0.543569
vt 0.375000 0.250000
vt 0.625000 0.250000
vt 0.624986 0.539202
vt 0.375017 0.543569
vt 0.624986 0.539202
vt 0.375017 0.543569
vt 0.375017 0.543569
vt 0.624986 0.539202
vt 0.375000 0.250000
vt 0.625000 0.250000
vt 0.625000 0.250000
vt 0.375000 0.250000
vt 0.625000 0.250000
vt 0.624986 0.539202
vt 0.375017 0.543569
vt 0.375000 0.250000
vt 0.624986 0.539202
vt 0.375017 0.543569
vt 0.375000 0.250000
vt 0.625000 0.250000
vt 0.625000 0.250000
vt 0.624986 0.539202
vt 0.375017 0.543569
vt 0.375000 0.250000
vt 0.624986 0.539202
vt 0.375017 0.543569
vt 0.375000 0.250000
vt 0.625000 0.250000
vt 0.375000 0.250000
vt 0.625000 0.250000
vt 0.625000 0.250000
vt 0.375000 0.250000
vt 0.375000 0.250000
vt 0.625000 0.250000
vt 0.625000 0.250000
vt 0.375000 0.250000
vt 0.617596 0.500570
vt 0.379032 0.501251
vt 0.385443 0.539945
vt 0.607145 0.536992
vt 0.624256 0.500085
vt 0.624999 0.502260
vt 0.618021 0.534517
vt 0.375001 0.502512
vt 0.375000 0.500013
vt 0.375014 0.537597
vt 0.625000 0.250000
vt 0.624996 0.415080
vt 0.624987 0.524559
vt 0.625000 0.251256
vt 0.375004 0.429961
vt 0.375000 0.250000
vt 0.375000 0.253936
vt 0.375015 0.533866
vt 0.381416 0.250000
vt 0.614801 0.250000
vn 0.000000 0.000000 1.000000
vn 0.000000 0.000000 1.000000
vn 0.000000 0.000000 1.000000
vn 0.000000 0.000000 1.000000
vn -0.262823 0.907661 -0.327224
vn 0.262823 0.907661 -0.327224
vn 0.217704 0.918170 -0.331012
vn -0.217704 0.918170 -0.331012
vn 0.000000 0.000000 -1.000000
vn 0.000000 0.000000 -1.000000
vn 0.000000 0.000000 -1.000000
vn 0.000000 0.000000 -1.000000
vn 0.000000 -1.000000 0.000000
vn 0.000000 -1.000000 0.000000
vn 0.000000 -1.000000 0.000000
vn 0.000000 -1.000000 0.000000
vn 1.000000 0.000000 0.000000
vn 1.000000 0.000000 0.000000
vn 1.000000 0.000000 0.000000
vn 1.000000 0.000000 0.000000
vn -1.000000 0.000000 0.000000
vn -1.000000 0.000000 0.000000
vn -1.000000 0.000000 0.000000
vn -1.000000 0.000000 0.000000
vn 0.000000 0.528887 0.848692
vn 0.000000 0.528887 0.848692
vn 0.000000 0.528887 0.848692
vn 0.000000 0.528887 0.848692
vn 0.848692 0.528887 0.000000
vn 0.848692 0.528887 0.000000
vn 0.848692 0.528887 0.000000
vn 0.848692 0.528887 0.000000
vn 0.000000 0.528887 -0.848692
vn 0.000000 0.528887 -0.848692
vn 0.000000 0.528887 -0.848692
vn 0.000000 0.528887 -0.848692
vn -0.848692 0.528887 0.000000
vn -0.848692 0.528887 0.000000
vn -0.848692 0.528887 0.000000
vn -0.848692 0.528887 0.000000
vn 0.000000 0.115935 0.993257
vn 0.000000 0.115935 0.993257
vn 0.000000 0.046718 0.998908
vn 0.000000 0.046718 0.998908
vn 0.993257 0.115935 0.000000
vn 0.993257 0.115935 0.000000
vn 0.998908 0.046718 0.000000
vn 0.998908 0.046718 0.000000
vn 0.000000 0.115935 -0.993257
vn 0.000000 0.115935 -0.993257
vn 0.000000 0.046718 -0.998908
vn 0.000000 0.046718 -0.998908
vn -0.993257 0.115935 0.000000
vn -0.993257 0.115935 0.000000
vn -0.998908 0.046718 0.000000
vn -0.998908 0.046718 0.000000
vn 0.000000 0.000000 1.000000
vn 0.000000 0.000000 1.000000
vn 1.000000 0.000000 0.000000
vn 1.000000 0.000000 0.000000
vn 0.000000 0.000000 -1.000000
vn 0.000000 0.000000 -1.000000
vn -1.000000 0.000000 0.000000
vn -1.000000 0.000000 0.000000
vn 0.000000 -1.000000 0.000001
vn 0.000000 -1.000000 0.000001
vn 0.000000 -1.000000 0.000001
vn 0.000000 -1.000000 0.000001
vn 0.000000 -1.000000 0.000000
vn 0.000000 -1.000000 0.000000
vn 0.000000 -1.000000 0.000000
vn 0.000000 -1.000000 0.000000
vn 0.000000 -1.000000 -0.000001
vn 0.000000 -1.000000 -0.000001
vn 0.000000 -1.000000 -0.000001
vn 0.000000 -1.000000 -0.000001
vn 0.000000 -1.000000 0.000000
vn 0.000000 -1.000000 0.000000
vn 0.000000 -1.000000 0.000000
vn 0.000000 -1.000000 0.000000
vn 0.000000 0.000000 1.000000
vn 0.000000 0.000000 1.000000
vn 0.000000 0.202753 0.979230
vn 0.000000 0.202753 0.979230
vn 1.000000 0.000000 0.000000
vn 1.000000 0.000000 0.000000
vn 1.000000 0.000000 0.000000
vn 1.000000 0.000000 0.000000
vn 0.000000 0.000000 -1.000000
vn 0.000000 0.000000 -1.000000
vn 0.000000 0.202753 -0.979230
vn 0.000000 0.202753 -0.979230
vn -1.000000 0.000000 0.000000
vn -1.000000 0.000000 0.000000
vn -1.000000 0.000000 0.000000
vn -1.000000 0.000000 0.000000
vn 0.000000 0.593948 0.804504
vn 0.000000 0.593948 0.804504
vn 1.000000 0.000000 0.000000
vn 1.000000 0.000000 0.000000
vn 0.000000 0.415147 -0.909754
vn 0.000000 0.415147 -0.909754
vn -1.000000 0.000000 0.000000
vn -1.000000 0.000000 0.000000
vn 1.000000 -0.000000 0.000000
vn 1.000000 -0.000000 0.000000
vn -1.000000 -0.000000 0.000000
vn -1.000000 -0.000000 0.000000
vn 1.000000 0.000000 0.000000
vn 1.000000 0.000000 0.000000
vn 1.000000 0.000000 0.000000
vn 1.000000 0.000000 0.000000
vn -0.998492 -0.054511 -0.006540
vn -0.998023 -0.062404 -0.007487
vn -0.998023 -0.062404 -0.007487
vn -0.998420 -0.055786 -0.006693
vn -1.000000 -0.000000 0.000000
vn 1.000000 -0.000000 0.000000
vn 0.000000 0.339148 0.940733
vn 0.000000 0.339148 0.940733
vn 0.000000 0.320630 0.947205
vn 0.000000 0.320630 0.947205
vn 1.000000 0.000000 0.000000
vn 1.000000 0.000000 0.000000
vn 0.984070 0.167244 -0.060294
vn 0.994683 0.096881 -0.034927
vn 0.000000 -0.339147 -0.940733
vn 0.000000 -0.339147 -0.940733
vn 0.000000 -0.320630 -0.947204
vn 0.000000 -0.320630 -0.947204
vn -1.000000 -0.000000 0.000000
vn -1.000000 -0.000000 0.000000
vn -0.994683 0.096881 -0.034927
vn -0.984070 0.167244 -0.060294
vn 0.000000 -0.940733 0.339147
vn 0.000000 -0.940733 0.339147
vn 0.000000 -0.940733 0.339147
vn 0.000000 -0.940733 0.339147
vn -0.996440 0.079305 -0.028590
vn -1.000000 0.000000 0.000000
vn 0.273279 0.904924 -0.326237
vn -0.273279 0.904924 -0.326237
vn 1.000000 0.000000 0.000000
vn 0.996440 0.079305 -0.028590
vn 0.000000 -0.940734 0.339146
vn 0.000000 -0.940734 0.339146
vn 0.000000 -0.940734 0.339146
vn 0.000000 -0.940734 0.339146
vn 0.970965 0.225043 -0.081131
vn 1.000000 0.000000 0.000000
vn -0.175918 0.926063 -0.333858
vn 0.175918 0.926063 -0.333858
vn -1.000000 0.000000 0.000000
vn -0.970965 0.225043 -0.081131
vn 0.727032 0.645911 -0.232859
vn 0.798810 0.565929 -0.204025
vn -0.798811 0.565929 -0.204025
vn -0.727032 0.645911 -0.232859
vn 0.817152 0.542260 -0.195492
vn 0.000000 -0.316251 -0.948675
vn 0.000000 -0.316251 -0.948675
vn -0.817152 0.542260 -0.195492
vn -0.671432 0.697146 -0.251330
vn 0.000000 0.316251 0.948676
vn 0.000000 0.316251 0.948676
vn 0.671432 0.697146 -0.251330
vn 0.000000 -0.400697 -0.916211
vn 0.000000 -0.400697 -0.916211
vn 0.000000 0.400698 0.916210
vn 0.000000 0.400698 0.916210
vn 0.000000 -0.940730 0.339156
vn 0.000000 -0.940730 0.339156
vn 0.000000 -0.940730 0.339156
vn 0.000000 -0.940730 0.339156
vn 0.000000 -0.940730 0.339156
vn 0.000000 -0.940730 0.339156
vn -0.000001 -0.940734 0.339146
vn -0.000001 -0.940734 0.339146
vn -0.000001 -0.940734 0.339146
vn -0.000001 -0.940734 0.339146
vn 0.000000 -0.940732 0.339150
vn 0.000000 -0.940732 0.339150
vn 0.000000 -0.940732 0.339150
vn 0.000000 -0.940732 0.339150
vn 0.000001 -0.940734 0.339146
vn 0.000001 -0.940734 0.339146
vn 0.000001 -0.940734 0.339146
vn 0.000001 -0.940734 0.339146
vn 0.000000 0.339149 0.940733
vn 0.000000 0.339149 0.940733
vn 0.000000 0.339149 0.940733
vn 0.000000 0.339149 0.940733
vn -1.000000 0.000000 0.000000
vn -1.000000 0.000000 0.000000
vn -1.000000 0.000000 0.000000
vn -1.000000 0.000000 0.000000
vn 0.000000 -0.339154 -0.940731
vn 0.000000 -0.339154 -0.940731
vn 0.000000 -0.339154 -0.940731
vn 0.000000 -0.339154 -0.940731
vn 1.000000 0.000000 0.000000
vn 1.000000 0.000000 0.000000
vn 1.000000 0.000000 0.000000
vn 1.000000 0.000000 0.000000
vn 0.000000 0.618322 -0.785925
vn 0.000000 0.618322 -0.785925
vn 0.000000 -0.932179 0.361999
vn 0.000000 -0.932179 0.361999
vn 0.000000 -0.932178 0.361999
vn 0.000000 -0.932178 0.361999
vn 0.063631 0.954244 -0.292180
vn 0.132879 0.781059 -0.610156
vn 0.132879 0.781059 -0.610156
vn 0.063631 0.954244 -0.292180
vn 0.000000 -0.727082 -0.686551
vn 0.000000 -0.727082 -0.686551
vn 0.000000 -0.727082 -0.686551
vn 0.000000 -0.727082 -0.686551
vn -0.132879 0.781059 -0.610156
vn -0.132879 0.781059 -0.610156
vn -0.132879 0.781059 -0.610156
vn -0.132879 0.781059 -0.610156
vn 0.000000 0.798427 0.602092
vn 0.000000 0.782242 0.622975
vn -0.009467 -0.941029 0.338194
vn -0.009467 -0.941029 0.338194
vn -0.009467 -0.941029 0.338194
vn -0.009467 -0.941029 0.338194
vn 0.000000 1.000000 0.000000
vn 0.000000 0.798427 0.602092
vn 0.000000 0.782242 0.622975
vn 0.000000 1.000000 0.000000
vn 0.010901 -0.940959 0.338344
vn 0.010901 -0.940959 0.338344
vn 0.010901 -0.940959 0.338344
vn 0.010901 -0.940959 0.338344
vn 0.000000 0.000000 1.000000
vn 0.000000 0.000000 1.000000
vn 0.000000 0.000000 1.000000
vn 0.000000 0.000000 1.000000
s off
g Light_Outside
usemtl phong4SG
f 1/1/1 2/2/2 4/4/3 3/3/4
s 1
f 61/70/5 62/67/6 63/68/7 64/69/8
s off
f 5/5/9 6/6/10 8/8/11 7/7/12
f 7/7/13 8/8/14 2/10/15 1/9/16
f 2/2/17 8/11/18 6/12/19 4/4/20
f 7/13/21 1/1/22 3/3/23 5/14/24
f 3/3/25 4/4/26 10/16/27 9/15/28
f 4/4/29 6/6/30 11/17/31 10/16/32
f 6/6/33 5/5/34 12/18/35 11/17/36
f 5/5/37 3/3/38 9/15/39 12/18/40
s 2
f 9/15/41 10/16/42 14/20/43 13/19/44
s 3
f 10/16/45 11/17/46 15/21/47 14/20/48
s 4
f 11/17/49 12/18/50 16/22/51 15/21/52
s 5
f 12/18/53 9/15/54 13/19/55 16/22/56
s 2
f 13/19/44 14/20/43 18/24/57 17/23/58
s 3
f 14/20/48 15/21/47 19/25/59 18/24/60
s 4
f 15/21/52 16/22/51 20/26/61 19/25/62
s 5
f 16/22/56 13/19/55 17/23/63 20/26/64
s off
f 17/23/65 18/24/66 22/28/67 21/27/68
f 18/24/69 19/25/70 23/29/71 22/28/72
f 19/25/73 20/26/74 24/30/75 23/29/76
f 20/26/77 17/23/78 21/27/79 24/30/80
s 6
f 21/27/81 22/28/82 26/32/83 25/31/84
s 7
f 22/28/85 23/29/86 27/33/87 26/32/88
s 8
f 23/29/89 24/30/90 28/34/91 27/33/92
s 9
f 24/30/93 21/27/94 25/31/95 28/34/96
s 6
f 25/31/84 26/32/83 30/36/97 29/35/98
s 7
f 26/32/88 27/33/87 31/37/99 30/36/100
s 8
f 27/33/92 28/34/91 32/38/101 31/37/102
s 9
f 28/34/96 25/31/95 29/35/103 32/38/104
s 7
f 30/36/100 31/37/99 35/41/105 34/40/106
s 9
f 32/38/104 29/35/103 33/39/107 36/42/108
s 10
f 83/93/109 81/94/110 80/95/111 84/96/112
s 11
f 82/97/113 85/98/114 86/99/115 79/100/116
f 77/90/117 82/91/113 79/92/116
s 10
f 81/87/110 78/88/118 80/89/111
s 12
f 49/55/119 50/56/120 51/57/121 52/58/122
s 1
f 38/44/123 39/45/124 43/49/125 42/48/126
s 14
f 46/51/127 45/52/128 47/53/129 48/54/130
s 1
f 40/46/131 37/43/132 41/47/133 44/50/134
s off
f 39/45/135 40/46/136 45/52/137 46/51/138
s 1
f 40/46/131 44/50/134 47/53/139 45/52/140
f 64/69/8 63/68/7 65/71/141 66/72/142
f 43/49/125 39/45/124 46/51/143 48/54/144
s off
usemtl phong1SG
f 73/79/145 74/80/146 75/81/147 76/82/148
s 1
usemtl phong4SG
f 38/44/123 42/48/126 51/57/149 50/56/150
f 62/67/6 61/70/5 67/73/151 68/74/152
f 41/47/133 37/43/132 49/55/153 52/58/154
f 42/48/126 43/49/125 55/60/155 54/59/156
f 44/50/134 41/47/133 53/62/157 56/61/158
f 43/49/125 48/54/144 57/63/159 55/60/155
s 14
f 48/54/130 47/53/129 58/64/160 57/63/161
s 1
f 47/53/139 44/50/134 56/61/158 58/64/162
f 41/47/133 52/58/154 59/65/163 53/62/157
s 12
f 52/58/122 51/57/121 60/66/164 59/65/165
s 1
f 51/57/149 42/48/126 54/59/156 60/66/166
f 54/59/156 55/60/155 63/68/7 62/67/6
f 56/61/158 53/62/157 61/70/5 64/69/8
f 55/60/155 57/63/159 65/71/141 63/68/7
s 14
f 57/63/161 58/64/160 66/72/167 65/71/168
s 1
f 58/64/162 56/61/158 64/69/8 66/72/142
f 53/62/157 59/65/163 67/73/151 61/70/5
s 12
f 59/65/165 60/66/164 68/74/169 67/73/170
s 1
f 60/66/166 54/59/156 62/67/6 68/74/152
s off
f 37/43/171 86/101/172 84/102/173 38/44/174 70/76/175 69/75/176
f 38/44/177 50/56/178 71/77/179 70/76/180
f 50/56/181 49/55/182 72/78/183 71/77/184
f 49/55/185 37/43/186 69/75/187 72/78/188
f 69/75/189 70/76/190 74/80/191 73/79/192
f 70/76/193 71/77/194 75/81/195 74/80/196
f 71/77/197 72/78/198 76/82/199 75/81/200
f 72/78/201 69/75/202 73/79/203 76/82/204
s 8
f 31/37/102 32/38/101 77/84/205 78/83/206
s off
f 40/46/207 39/45/208 80/86/209 79/85/210
s 6
f 35/41/211 31/37/212 78/88/213 81/87/214
s off
f 78/83/215 77/84/216 79/85/217 80/89/218
f 32/38/219 36/42/220 82/91/221 77/90/222
s 6
f 34/40/223 35/41/211 81/94/214 83/93/224
s off
f 39/45/225 38/44/226 84/96/227 80/95/228
s 6
f 36/42/229 33/39/230 85/98/231 82/97/232
s off
f 37/43/233 40/46/234 79/100/235 86/99/236
s 6
f 34/40/223 83/93/224 85/98/231 33/39/230 29/35/98 30/36/97
s off
f 85/98/237 83/93/238 84/102/239 86/99/240
