# This file uses centimeters as units for non-parametric coordinates.

mtllib Door-2-Main.mtl
g default
v -0.576221 1.184260 0.147538
v -0.001585 1.774386 0.147538
v -0.001585 1.774386 -0.147538
v -0.576221 1.184260 -0.147538
v -0.001584 2.828527 -0.147538
v -0.001584 2.828527 0.147538
v -0.576221 -0.020119 0.147538
v -0.576221 -0.020119 -0.147538
v -0.043211 2.828527 0.107624
v -1.322313 2.828527 0.107624
v -2.113371 2.401275 0.107624
v -2.113371 0.407135 0.107624
v -1.686118 -0.020119 0.107624
v -0.617848 -0.020119 0.107624
v -0.617848 1.202628 0.107624
v -0.043212 1.792755 0.107624
v -0.043212 1.792755 -0.107624
v -0.617848 1.202628 -0.107624
v -0.617848 -0.020119 -0.107624
v -1.686118 -0.020119 -0.107624
v -2.113371 0.407135 -0.107624
v -2.113371 2.401275 -0.107624
v -1.322313 2.828527 -0.107624
v -0.043211 2.828527 -0.107624
v -0.373155 -0.020119 -0.147538
v -0.328898 -0.020119 -0.103281
v -0.328898 1.105084 -0.103281
v -0.373155 1.136920 -0.147538
v 0.256136 1.703325 -0.103281
v 0.211879 1.735161 -0.147538
v -0.328898 -0.020119 0.103281
v -0.373155 -0.020119 0.147538
v -0.328898 1.105084 0.103281
v -0.373155 1.136920 0.147538
v 0.211880 2.828527 0.147538
v 0.256137 2.828527 0.103281
v 0.256136 1.703326 0.103281
v 0.211879 1.735162 0.147538
v 0.256137 2.828527 -0.103281
v 0.211880 2.828527 -0.147538
vt 0.108009 0.430163
vt 0.313855 0.427384
vt 0.317035 0.662997
vt 0.026792 0.513602
vt 0.893890 0.413975
vt 0.975591 0.496940
vt 0.686223 0.648023
vt 0.575687 0.032981
vt 0.424233 0.035388
vt 0.421522 0.260268
vt 0.431815 0.408047
vt 0.429297 0.775215
vt 0.414570 0.618960
vt 0.425914 0.619316
vt 0.566286 0.405883
vt 0.572559 0.258772
vt 0.574616 0.760893
vt 0.564400 0.033415
vt 0.573085 0.960490
vt 0.578232 0.617426
vt 0.185519 0.978126
vt 0.031978 0.897855
vt 0.972643 0.881217
vt 0.819572 0.962381
vt 0.513842 0.035383
vt 0.525661 0.035061
vt 0.533077 0.262364
vt 0.519172 0.258975
vt 0.529364 0.413040
vt 0.517589 0.410063
vt 0.536033 0.620580
vt 0.523276 0.621200
vt 0.463005 0.036165
vt 0.474829 0.036244
vt 0.474904 0.259074
vt 0.461091 0.262853
vt 0.480607 0.411188
vt 0.468918 0.414395
vt 0.480957 0.621415
vt 0.468182 0.621199
vt 0.577653 0.406704
vt 0.589561 0.616743
vt 0.688031 0.412396
vt 0.584029 0.259641
vt 0.431991 0.974800
vt 0.420477 0.409162
vt 0.410074 0.261413
vt 0.412939 0.035222
vn 0.000000 0.000000 1.000000
vn 0.000000 0.000000 1.000000
vn 0.000000 0.000000 1.000000
vn 0.000000 0.000000 1.000000
vn 0.000000 0.000000 -1.000000
vn -0.000000 0.000000 -1.000000
vn -0.000000 0.000000 -1.000000
vn 0.000000 0.000000 -1.000000
vn -0.692097 -0.000000 0.721805
vn -0.692097 -0.000000 0.721805
vn -0.631704 0.197385 0.749659
vn -0.628991 0.204405 0.750060
vn -0.621743 0.222661 0.750905
vn -0.624617 0.215505 0.750608
vn -0.692095 0.000001 0.721806
vn -0.692095 0.000001 0.721806
vn -0.621743 0.222661 -0.750905
vn -0.631704 0.197385 -0.749659
vn -0.628990 0.204404 -0.750060
vn -0.624617 0.215505 -0.750608
vn -0.692097 -0.000000 -0.721805
vn -0.692097 -0.000000 -0.721805
vn -0.692095 0.000001 -0.721806
vn -0.692095 0.000001 -0.721806
vn 0.000000 0.000000 1.000000
vn 0.000000 0.000000 1.000000
vn 0.000000 0.000000 1.000000
vn 0.000000 0.000000 1.000000
vn -0.000000 0.000000 -1.000000
vn -0.000000 0.000000 -1.000000
vn 0.000000 0.000000 -1.000000
vn 0.000000 0.000000 -1.000000
vn 0.707106 -0.000000 -0.707108
vn 0.707106 -0.000000 -0.707108
vn 0.707106 -0.000000 -0.707108
vn 0.707106 -0.000000 -0.707108
vn 0.453697 -0.443680 -0.772856
vn 0.453697 -0.443680 -0.772856
vn 0.453697 -0.443680 -0.772856
vn 0.453697 -0.443680 -0.772856
vn 0.707107 -0.000001 -0.707107
vn 0.707107 -0.000001 -0.707107
vn 0.707107 -0.000001 -0.707107
vn 0.707107 -0.000001 -0.707107
vn 0.707106 -0.000000 0.707108
vn 0.707106 -0.000000 0.707108
vn 0.707106 -0.000000 0.707108
vn 0.707106 -0.000000 0.707108
vn 0.453698 -0.443681 0.772856
vn 0.453698 -0.443681 0.772856
vn 0.453698 -0.443681 0.772856
vn 0.453698 -0.443681 0.772856
vn 0.707107 -0.000001 0.707106
vn 0.707107 -0.000001 0.707106
vn 0.707107 -0.000001 0.707107
vn 0.707107 -0.000001 0.707107
vn 1.000000 -0.000001 0.000000
vn 1.000000 -0.000001 0.000000
vn 1.000000 -0.000001 0.000000
vn 1.000000 -0.000001 0.000000
vn 0.714955 -0.699170 0.000001
vn 0.714955 -0.699170 0.000001
vn 0.714955 -0.699170 0.000001
vn 0.714955 -0.699170 0.000001
vn 1.000000 -0.000000 0.000000
vn 1.000000 -0.000000 0.000000
vn 1.000000 -0.000000 0.000000
vn 1.000000 -0.000000 0.000000
vn 0.000000 0.000000 1.000000
vn -0.000000 0.000000 1.000000
vn -0.000000 0.000000 1.000000
vn -0.000000 0.000000 1.000000
vn -0.000000 0.000000 1.000000
vn -0.000000 0.000000 1.000000
vn -0.000000 0.000000 1.000000
vn -0.000000 0.000000 1.000000
vn -0.000000 0.000000 -1.000000
vn -0.000000 0.000000 -1.000000
vn -0.000000 0.000000 -1.000000
vn -0.000000 0.000000 -1.000000
vn -0.000000 0.000000 -1.000000
vn -0.000000 0.000000 -1.000000
vn 0.000000 0.000000 -1.000000
vn 0.000000 0.000000 -1.000000
s 1
g pCube4
usemtl initialShadingGroup
f 13/1/1 14/2/2 15/3/3 12/4/4
s 2
f 20/5/5 21/6/6 18/7/7 19/43/8
s 3
f 14/48/9 7/9/10 1/10/11 15/47/12
f 1/10/11 2/11/13 16/46/14 15/47/12
f 9/13/15 16/46/14 2/11/13 6/14/16
s 4
f 3/15/17 4/16/18 18/44/19 17/41/20
f 18/44/19 4/16/18 8/18/21 19/8/22
f 17/41/20 24/42/23 5/20/24 3/15/17
s 1
f 10/21/25 11/22/26 16/12/27 9/45/28
f 16/12/27 11/22/26 12/4/4 15/3/3
s 2
f 17/17/29 22/23/30 23/24/31 24/19/32
f 22/23/30 17/17/29 18/7/7 21/6/6
s off
f 26/25/33 25/26/34 28/27/35 27/28/36
f 27/28/37 28/27/38 30/29/39 29/30/40
f 29/30/41 30/29/42 40/31/43 39/32/44
f 32/33/45 31/34/46 33/35/47 34/36/48
f 34/36/49 33/35/50 37/37/51 38/38/52
f 36/39/53 35/40/54 38/38/55 37/37/56
f 36/39/57 37/37/58 29/30/59 39/32/60
f 27/28/61 29/30/62 37/37/63 33/35/64
f 26/25/65 27/28/66 33/35/67 31/34/68
s 5
f 1/10/69 7/9/70 32/33/71 34/36/72
f 34/36/72 38/38/73 2/11/74 1/10/69
f 2/11/74 38/38/73 35/40/75 6/14/76
s 6
f 3/15/77 5/20/78 40/31/79 30/29/80
f 30/29/80 28/27/81 4/16/82 3/15/77
f 4/16/82 28/27/81 25/26/83 8/18/84
