# This file uses centimeters as units for non-parametric coordinates.

mtllib Door-1-Frame.mtl
g default
v 0.641081 2.616243 0.064578
v 0.631084 2.591882 0.088939
v -0.641081 2.616243 0.064578
v -0.631084 2.591882 0.088939
v 0.641081 2.616243 -0.064578
v 0.631084 2.591882 -0.088939
v -0.641081 2.616243 -0.064578
v -0.631084 2.591882 -0.088939
v -0.829001 2.430766 -0.064578
v -0.804644 2.420578 -0.088939
v -0.829894 0.036458 -0.064578
v -0.805528 0.048463 -0.088939
v 0.829001 2.430766 -0.064578
v 0.804644 2.420578 -0.088939
v 0.829894 0.036458 -0.064578
v 0.805528 0.048464 -0.088939
v -0.804644 2.420578 0.088939
v -0.829001 2.430766 0.064578
v 0.829001 2.430766 0.064578
v 0.804644 2.420578 0.088939
v 0.517084 2.443095 -0.064578
v 0.527811 2.467456 -0.088939
v -0.517084 2.443095 -0.064578
v -0.527811 2.467456 -0.088939
v 0.641081 2.307623 -0.064578
v 0.665442 2.317089 -0.088939
v 0.641081 0.115636 -0.064578
v 0.665442 0.105545 -0.088939
v 0.517084 2.443095 0.064578
v 0.527811 2.467456 0.088939
v -0.517084 2.443095 0.064578
v -0.527811 2.467456 0.088939
v -0.641081 2.307623 -0.064578
v -0.665442 2.317089 -0.088939
v -0.641081 0.115636 -0.064578
v -0.665442 0.105545 -0.088939
v 0.665442 2.317089 0.088939
v 0.641081 2.307623 0.064578
v -0.641081 2.307623 0.064578
v -0.665442 2.317089 0.088939
v -0.666080 -0.089320 0.064578
v -0.657806 -0.064959 0.088939
v 0.666080 -0.089320 0.064578
v 0.657806 -0.064959 0.088939
v -0.829894 0.036458 0.064578
v -0.805528 0.048463 0.088939
v -0.666080 -0.089320 -0.064578
v -0.657806 -0.064959 -0.088939
v 0.666080 -0.089320 -0.064578
v 0.657806 -0.064959 -0.088939
v 0.829894 0.036458 0.064578
v 0.805528 0.048463 0.088939
v 0.641081 0.115636 0.064578
v 0.665442 0.105545 0.088939
v -0.641081 0.115636 0.064578
v -0.665442 0.105545 0.088939
v 0.598368 0.072923 0.064578
v 0.608459 0.048562 0.088939
v -0.598368 0.072923 0.064578
v -0.608459 0.048562 0.088939
v 0.598368 0.072923 -0.064578
v 0.608459 0.048562 -0.088939
v -0.598368 0.072923 -0.064578
v -0.608459 0.048562 -0.088939
vt 0.314279 0.994374
vt 0.209987 0.607807
vt 0.231446 0.586562
vt 0.314279 0.963898
vt 0.314279 0.157751
vt 0.058264 0.607842
vt 0.314279 0.188331
vt 0.036891 0.586633
vt 0.329832 0.005626
vt 0.060301 0.973307
vt 0.212023 0.972790
vt 0.329832 0.157751
vt 0.329832 0.963898
vt 0.038759 0.952133
vt 0.233305 0.951482
vt 0.329832 0.188331
vt 0.232573 0.667495
vt 0.329832 0.473058
vt 0.214052 0.653189
vt 0.329832 0.496962
vt 0.329832 0.679152
vt 0.037790 0.668135
vt 0.329832 0.655247
vt 0.056133 0.653703
vt 0.314279 0.473058
vt 0.036610 0.302599
vt 0.231386 0.302549
vt 0.314279 0.679152
vt 0.259936 0.982222
vt 0.072708 0.958447
vt 0.055336 0.939632
vt 0.259936 0.960270
vt 0.259936 0.256794
vt 0.199521 0.958011
vt 0.259936 0.278747
vt 0.216648 0.939091
vt 0.054545 0.674978
vt 0.259936 0.698254
vt 0.062150 0.667191
vt 0.259936 0.691033
vt 0.275375 0.133176
vt 0.197526 0.592989
vt 0.070706 0.593019
vt 0.275375 0.256794
vt 0.275375 0.960270
vt 0.214823 0.574119
vt 0.053503 0.574177
vt 0.275375 0.278747
vt 0.259936 0.540763
vt 0.215862 0.674445
vt 0.259936 0.547983
vt 0.208122 0.666721
vt 0.275375 0.698254
vt 0.214656 0.309456
vt 0.053346 0.309498
vt 0.275375 0.540763
vt 0.314279 0.496962
vt 0.055072 0.288250
vt 0.314279 0.655247
vt 0.212995 0.288199
vt 0.275375 0.691033
vt 0.207027 0.301714
vt 0.061048 0.301758
vt 0.275375 0.547983
vt 0.205608 0.305764
vt 0.062475 0.305813
vt 0.057420 0.310828
vt 0.210578 0.310788
vt 0.057595 0.572915
vt 0.210734 0.572858
vt 0.072237 0.588956
vt 0.195988 0.588922
vt 0.333955 0.496962
vt 0.333955 0.655247
vt 0.333955 0.679152
vt 0.333955 0.963898
vt 0.333955 0.473058
vt 0.333955 0.188331
vt 0.333955 0.157751
vt 0.333955 0.994374
vt 0.206718 0.670776
vt 0.063573 0.671243
vt 0.310154 0.679152
vt 0.310154 0.655247
vt 0.310154 0.496962
vt 0.310154 0.473058
vt 0.211791 0.675775
vt 0.212553 0.937853
vt 0.058625 0.676283
vt 0.059422 0.938367
vt 0.197982 0.953946
vt 0.074226 0.954380
vt 0.310154 0.963898
vt 0.310154 0.188331
vt 0.310154 0.157751
vt 0.310154 0.005626
vt 0.333955 0.005626
vt 0.310154 0.994374
vt 0.259936 0.133176
vt 0.275375 0.982222
vt 0.314279 0.005626
vt 0.329832 0.994374
vn 0.496716 0.503259 0.707110
vn 0.496716 0.503259 0.707110
vn 0.496716 0.503259 0.707110
vn 0.496716 0.503259 0.707110
vn 0.000000 0.707104 0.707110
vn 0.000000 0.707104 0.707110
vn 0.000000 0.707104 0.707110
vn 0.000000 0.707104 0.707110
vn -0.496716 0.503259 0.707110
vn -0.496716 0.503259 0.707110
vn -0.496716 0.503259 0.707110
vn -0.496716 0.503259 0.707110
vn 0.000000 0.707104 -0.707110
vn 0.000000 0.707104 -0.707110
vn 0.000000 0.707104 -0.707110
vn 0.000000 0.707104 -0.707110
vn 0.496718 0.503260 -0.707107
vn 0.496718 0.503260 -0.707107
vn 0.496718 0.503260 -0.707107
vn 0.496718 0.503260 -0.707107
vn -0.496716 0.503259 -0.707110
vn -0.496716 0.503259 -0.707110
vn -0.496716 0.503259 -0.707110
vn -0.496716 0.503259 -0.707110
vn -0.707107 0.000264 -0.707106
vn -0.707107 0.000264 -0.707106
vn -0.707107 0.000264 -0.707106
vn -0.707107 0.000264 -0.707106
vn -0.430629 -0.560855 -0.707107
vn -0.430629 -0.560855 -0.707107
vn -0.054672 -0.696704 -0.715272
vn -0.057977 -0.696004 -0.715694
vn 0.707112 0.000264 -0.707102
vn 0.707112 0.000264 -0.707101
vn 0.707112 0.000264 -0.707102
vn 0.707112 0.000264 -0.707102
vn 0.430630 -0.560856 -0.707106
vn 0.430630 -0.560856 -0.707106
vn 0.057978 -0.696004 -0.715694
vn 0.054672 -0.696705 -0.715272
vn -0.707107 0.000264 0.707106
vn -0.707107 0.000264 0.707106
vn -0.707107 0.000264 0.707106
vn -0.707107 0.000264 0.707106
vn 0.707107 0.000264 0.707106
vn 0.707107 0.000264 0.707106
vn 0.707107 0.000264 0.707106
vn 0.707107 0.000264 0.707106
vn -0.521601 -0.477423 -0.707107
vn -0.521601 -0.477423 -0.707107
vn -0.699284 -0.037512 -0.713859
vn -0.698633 -0.040420 -0.714338
vn 0.000000 -0.707104 -0.707110
vn 0.000000 -0.707104 -0.707110
vn 0.000000 -0.707104 -0.707110
vn 0.000000 -0.707104 -0.707110
vn 0.521601 -0.477423 -0.707107
vn 0.521600 -0.477423 -0.707107
vn 0.698633 -0.040420 -0.714338
vn 0.699284 -0.037512 -0.713859
vn -0.707107 0.000000 -0.707107
vn -0.707107 0.000000 -0.707107
vn -0.500000 0.500001 -0.707106
vn -0.500000 0.500001 -0.707106
vn -0.500000 0.500001 -0.707106
vn -0.500000 0.500001 -0.707106
vn 0.000000 -0.707105 0.707109
vn 0.000000 -0.707105 0.707109
vn 0.000000 -0.707105 0.707109
vn 0.000000 -0.707105 0.707109
vn -0.521601 -0.477422 0.707107
vn -0.521601 -0.477422 0.707107
vn -0.698633 -0.040420 0.714338
vn -0.699284 -0.037512 0.713859
vn 0.521600 -0.477421 0.707108
vn 0.521600 -0.477421 0.707108
vn 0.699284 -0.037512 0.713859
vn 0.698633 -0.040420 0.714338
vn 0.707107 0.000000 -0.707107
vn 0.707107 0.000000 -0.707107
vn 0.500000 0.500002 -0.707105
vn 0.500000 0.500002 -0.707105
vn 0.500000 0.500002 -0.707105
vn 0.500000 0.500002 -0.707105
vn -0.707107 0.000000 0.707107
vn -0.707107 0.000000 0.707107
vn 0.707107 0.000000 0.707107
vn 0.707107 0.000000 0.707107
vn -0.057977 -0.696004 0.715694
vn -0.054672 -0.696704 0.715272
vn -0.430629 -0.560855 0.707107
vn -0.430629 -0.560855 0.707107
vn 0.057977 -0.696004 0.715694
vn 0.054672 -0.696704 0.715272
vn 0.430629 -0.560855 0.707107
vn 0.430629 -0.560855 0.707107
vn -0.500000 0.500002 0.707105
vn -0.500000 0.500002 0.707105
vn -0.500000 0.500002 0.707105
vn -0.500000 0.500002 0.707105
vn 0.500000 0.500001 0.707106
vn 0.500000 0.500001 0.707106
vn 0.500000 0.500001 0.707106
vn 0.500000 0.500001 0.707106
vn 0.000000 0.707106 0.707108
vn 0.000000 0.707106 0.707108
vn 0.000000 0.707106 0.707108
vn 0.000000 0.707106 0.707108
vn 0.000000 0.707106 -0.707108
vn 0.000000 0.707106 -0.707108
vn 0.000000 0.707106 -0.707108
vn 0.000000 0.707106 -0.707108
vn 0.000000 0.000000 -1.000000
vn -0.000000 0.000000 -1.000000
vn -0.000000 0.000000 -1.000000
vn 0.000000 0.000000 -1.000000
vn 0.000000 -1.000000 0.000000
vn 0.000000 -1.000000 0.000000
vn 0.000000 -1.000000 0.000000
vn 0.000000 -1.000000 0.000000
vn 1.000000 0.000373 -0.000002
vn 1.000000 0.000373 -0.000002
vn 1.000000 0.000373 -0.000002
vn 1.000000 0.000373 -0.000002
vn -1.000000 0.000373 0.000000
vn -1.000000 0.000373 0.000000
vn -1.000000 0.000373 0.000000
vn -1.000000 0.000373 0.000000
vn 0.000000 1.000000 0.000000
vn 0.000000 1.000000 0.000000
vn 0.000000 1.000000 0.000000
vn 0.000000 1.000000 0.000000
vn -0.000000 0.000000 1.000000
vn -0.000000 0.000000 1.000000
vn -0.000000 0.000000 1.000000
vn -0.000000 0.000000 1.000000
vn -0.000000 0.000000 -1.000000
vn -0.000000 0.000000 -1.000000
vn -1.000000 0.000000 0.000000
vn -1.000000 0.000000 0.000000
vn -1.000000 0.000000 0.000000
vn -1.000000 0.000000 0.000000
vn 0.000000 -1.000000 0.000000
vn 0.000000 -1.000000 0.000000
vn 0.000000 -1.000000 0.000000
vn 0.000000 -1.000000 0.000000
vn 0.000000 1.000000 0.000000
vn 0.000000 1.000000 0.000000
vn 0.000000 1.000000 0.000000
vn 0.000000 1.000000 0.000000
vn -0.737655 -0.675178 0.000000
vn -0.737655 -0.675178 0.000000
vn -0.737655 -0.675178 0.000000
vn -0.737655 -0.675178 0.000000
vn 0.737655 -0.675178 -0.000000
vn 0.737655 -0.675178 -0.000000
vn 0.737655 -0.675178 -0.000000
vn 0.737655 -0.675178 -0.000000
vn 0.000000 0.000000 1.000000
vn 0.000000 0.000000 1.000000
vn 0.000000 0.000000 1.000000
vn 0.000000 0.000000 1.000000
vn -0.000000 0.000000 -1.000000
vn 0.000000 0.000000 -1.000000
vn 0.000000 0.000000 -1.000000
vn -0.000000 0.000000 -1.000000
vn 0.000000 0.000000 -1.000000
vn -0.000000 0.000000 -1.000000
vn -0.000000 0.000000 -1.000000
vn 0.000000 0.000000 -1.000000
vn 0.702466 0.711717 -0.000002
vn 0.702466 0.711717 -0.000002
vn 0.702466 0.711717 -0.000002
vn 0.702466 0.711717 -0.000002
vn -0.702466 0.711717 0.000000
vn -0.702466 0.711717 0.000000
vn -0.702466 0.711717 0.000000
vn -0.702466 0.711717 0.000000
vn -0.609001 -0.793170 0.000000
vn -0.609001 -0.793170 0.000000
vn -0.609001 -0.793170 0.000000
vn -0.609001 -0.793170 0.000000
vn 0.609001 -0.793169 -0.000001
vn 0.609001 -0.793169 -0.000001
vn 0.609001 -0.793169 -0.000001
vn 0.609001 -0.793169 -0.000001
vn 0.000000 0.000000 1.000000
vn 0.000000 0.000000 1.000000
vn 0.000000 0.000000 1.000000
vn 0.000000 0.000000 1.000000
vn -0.707106 0.707107 0.000000
vn -0.707106 0.707107 0.000000
vn -0.707106 0.707107 0.000000
vn -0.707106 0.707107 0.000000
vn 0.707106 0.707107 0.000000
vn 0.707106 0.707107 0.000000
vn 0.707106 0.707107 0.000000
vn 0.707106 0.707107 0.000000
vn -0.000000 0.000000 1.000000
vn -0.000000 0.000000 1.000000
vn 0.000000 0.000000 1.000000
vn 0.000000 0.000000 1.000000
vn -0.000000 0.000000 -1.000000
vn -0.000000 0.000000 -1.000000
vn 1.000000 0.000000 0.000000
vn 1.000000 0.000000 0.000000
vn 1.000000 0.000000 0.000000
vn 1.000000 0.000000 0.000000
s off
g pasted__pasted__pasted__pCube1
usemtl initialShadingGroup
f 1/1/1 2/98/2 20/93/3 19/4/4
f 2/96/5 1/101/6 3/5/7 4/95/8
f 4/95/9 3/5/10 18/7/11 17/94/12
f 5/9/13 6/97/14 8/79/15 7/12/16
f 6/80/17 5/102/18 13/13/19 14/76/20
f 7/12/21 8/79/22 10/78/23 9/16/24
f 9/16/25 10/78/26 12/77/27 11/18/28
s 1
f 11/18/29 12/77/30 48/73/31 47/20/32
s off
f 14/76/33 13/13/34 15/21/35 16/75/36
s 1
f 16/75/37 15/21/38 49/23/39 50/74/40
s off
f 17/94/41 18/7/42 45/25/43 46/86/44
f 19/4/45 20/93/46 52/83/47 51/28/48
s 2
f 21/92/49 22/30/50 26/31/51 25/90/52
s off
f 22/30/53 21/92/54 23/91/55 24/34/56
s 3
f 24/34/57 23/91/58 33/88/59 34/36/60
s 2
f 25/90/52 26/31/51 28/37/61 27/89/62
s off
f 27/89/63 28/37/64 62/39/65 61/82/66
f 29/72/67 30/42/68 32/43/69 31/71/70
s 4
f 30/42/71 29/72/72 38/70/73 37/46/74
s 5
f 31/71/75 32/43/76 40/47/77 39/69/78
s 3
f 34/36/60 33/88/59 35/87/79 36/50/80
s off
f 36/50/81 35/87/82 63/81/83 64/52/84
s 4
f 37/46/74 38/70/73 53/68/85 54/54/86
s 5
f 39/69/78 40/47/77 56/55/87 55/67/88
s 6
f 41/57/89 42/85/90 46/86/91 45/25/92
f 42/85/90 41/57/89 43/59/93 44/84/94
f 44/84/94 43/59/93 51/28/95 52/83/96
s 1
f 47/20/32 48/73/31 50/74/40 49/23/39
s off
f 54/54/97 53/68/98 57/65/99 58/62/100
f 55/67/101 56/55/102 60/63/103 59/66/104
f 58/62/105 57/65/106 59/66/107 60/63/108
f 61/82/109 62/39/110 64/52/111 63/81/112
s 7
f 64/52/113 62/39/114 50/24/115 48/19/116
s off
f 43/59/117 41/57/118 47/20/119 49/23/120
f 19/4/121 51/28/122 15/21/123 13/13/124
f 11/18/125 45/25/126 18/7/127 9/16/128
f 5/9/129 7/12/130 3/5/131 1/101/132
s 8
f 4/6/133 17/8/134 40/47/135 32/43/136
s 7
f 28/37/137 16/22/138 50/24/115 62/39/114
s off
f 38/45/139 25/32/140 27/38/141 53/53/142
f 31/44/143 23/33/144 21/99/145 29/41/146
f 57/61/147 61/40/148 63/51/149 59/64/150
f 38/45/151 29/100/152 21/29/153 25/32/154
f 31/44/155 39/48/156 33/35/157 23/33/158
s 8
f 20/3/159 2/2/160 30/42/161 37/46/162
s 7
f 10/15/163 8/11/164 24/34/165 34/36/166
f 6/10/167 14/14/168 26/31/169 22/30/170
s off
f 5/102/171 1/1/172 19/4/173 13/13/174
s 7
f 24/34/165 8/11/164 6/10/167 22/30/170
s 8
f 4/6/133 32/43/136 30/42/161 2/2/160
s off
f 7/12/175 9/16/176 18/7/177 3/5/178
f 41/57/179 45/25/180 11/18/181 47/20/182
f 51/28/183 43/59/184 49/23/185 15/21/186
s 8
f 58/62/187 44/60/188 52/27/189 54/54/190
s off
f 27/38/191 61/40/192 57/61/193 53/53/194
f 55/56/195 59/64/196 63/51/197 35/49/198
s 8
f 56/55/199 40/47/135 17/8/134 46/26/200
f 56/55/199 46/26/200 42/58/201 60/63/202
f 58/62/187 60/63/202 42/58/201 44/60/188
f 54/54/190 52/27/189 20/3/159 37/46/162
s 7
f 28/37/137 26/31/169 14/14/168 16/22/138
f 36/50/203 12/17/204 10/15/163 34/36/166
f 64/52/113 48/19/116 12/17/204 36/50/203
s off
f 35/49/205 33/35/206 39/48/207 55/56/208
